<?xml version="1.0" encoding="UTF-8" standalone="no"?>
<!-- Created with Inkscape (http://www.inkscape.org/) -->

<svg
   width="650"
   height="105"
   viewBox="0 0 171.97917 27.781252"
   version="1.1"
   id="svg1"
   inkscape:version="1.4.3 (0d15f75, 2025-12-25)"
   sodipodi:docname="obt_logo.svg"
   xmlns:inkscape="http://www.inkscape.org/namespaces/inkscape"
   xmlns:sodipodi="http://sodipodi.sourceforge.net/DTD/sodipodi-0.dtd"
   xmlns:xlink="http://www.w3.org/1999/xlink"
   xmlns="http://www.w3.org/2000/svg"
   xmlns:svg="http://www.w3.org/2000/svg">
  <sodipodi:namedview
     id="namedview1"
     pagecolor="#ffffff"
     bordercolor="#666666"
     borderopacity="1.0"
     inkscape:showpageshadow="2"
     inkscape:pageopacity="0.0"
     inkscape:pagecheckerboard="0"
     inkscape:deskcolor="#d1d1d1"
     inkscape:document-units="mm"
     inkscape:zoom="1.9193129"
     inkscape:cx="321.2087"
     inkscape:cy="56.270137"
     inkscape:window-width="1920"
     inkscape:window-height="991"
     inkscape:window-x="-9"
     inkscape:window-y="-9"
     inkscape:window-maximized="1"
     inkscape:current-layer="layer1" />
  <defs
     id="defs1">
    <rect
       x="-330.8855"
       y="-128.98926"
       width="45.35289"
       height="19.750982"
       id="rect5" />
    <rect
       x="114.30341"
       y="679.22601"
       width="181.54839"
       height="259.50241"
       id="rect219-3-4-4" />
    <rect
       x="114.30341"
       y="679.22601"
       width="144.46613"
       height="31.805506"
       id="rect362-1-9" />
    <rect
       x="114.30341"
       y="679.22601"
       width="176.9352"
       height="47.378674"
       id="rect8772" />
    <rect
       x="114.30341"
       y="679.22601"
       width="176.9352"
       height="47.378674"
       id="rect8774" />
    <rect
       x="114.30341"
       y="679.22601"
       width="176.9352"
       height="47.378674"
       id="rect8777" />
    <rect
       x="114.30341"
       y="679.22601"
       width="176.9352"
       height="47.378674"
       id="rect8778" />
    <rect
       x="114.30341"
       y="679.22601"
       width="176.9352"
       height="47.378674"
       id="rect227" />
    <rect
       x="114.30341"
       y="679.22601"
       width="144.46613"
       height="31.805506"
       id="rect362-1-9-1" />
    <rect
       x="114.30341"
       y="679.22601"
       width="176.9352"
       height="47.378674"
       id="rect227-4" />
    <rect
       x="114.30341"
       y="679.22601"
       width="144.46613"
       height="31.805506"
       id="rect10" />
    <rect
       x="114.30341"
       y="679.22601"
       width="144.46613"
       height="31.805506"
       id="rect10-5" />
    <rect
       x="-330.8855"
       y="-128.98926"
       width="45.35289"
       height="19.750982"
       id="rect7" />
    <linearGradient
       inkscape:collect="always"
       xlink:href="#linearGradient15"
       id="linearGradient16"
       x1="124.3327"
       y1="46.046726"
       x2="168.29633"
       y2="46.046726"
       gradientUnits="userSpaceOnUse"
       gradientTransform="matrix(3.5325039,0,0,3.5325039,-430.77519,-148.03573)" />
    <linearGradient
       id="linearGradient15"
       inkscape:collect="always">
      <stop
         style="stop-color:#ff0d7c;stop-opacity:1;"
         offset="0"
         id="stop15" />
      <stop
         style="stop-color:#ff13ff;stop-opacity:0.96587032;"
         offset="1"
         id="stop16" />
    </linearGradient>
  </defs>
  <g
     inkscape:label="Layer 1"
     inkscape:groupmode="layer"
     id="layer1">
    <path
       style="fill:#000000;stroke-width:0.684782"
       d="m 76.584224,22.666749 v -1.174714 h 3.905254 3.905217 v -0.719313 -0.719307 l -3.85979,-0.04878 -3.85986,-0.04878 -0.0551,-0.948805 -0.05475,-0.948807 h -0.989567 -0.98949 v -3.162716 -3.162686 h 2.179626 2.17966 v 2.891601 2.891603 h 2.724622 2.724584 v -2.891603 -2.891601 h 2.179661 2.179659 v 5.050859 5.050862 l -0.953599,0.05465 -0.953598,0.05465 -0.0551,0.948809 -0.05475,0.948808 h -5.076421 -5.076419 z m 76.150526,0 v -1.174714 h 3.90522 3.90525 v -0.719313 -0.719307 l -3.85982,-0.04878 -3.85981,-0.04878 -0.0552,-0.948805 -0.0551,-0.948807 h -0.98951 -0.98953 v -3.162716 -3.162686 h 2.17967 2.17966 v 2.891601 2.891603 h 2.72463 2.72458 v -2.891603 -2.891601 h 2.17966 2.17969 v 5.050859 5.050862 l -0.95363,0.05465 -0.9536,0.05465 -0.0552,0.948809 -0.0549,0.948808 h -5.07645 -5.07639 z M 11.600921,20.949855 V 20.04623 H 10.601892 9.6028653 V 14.895557 9.7448954 h 0.9990267 0.999029 V 8.7509088 7.756919 h 5.085886 5.085923 v 0.9939898 0.9939866 h 1.001817 1.001854 l -0.04838,5.1054806 -0.04839,5.105488 -0.953636,0.05465 -0.953598,0.05466 v 0.89418 0.894184 h -5.0859 -5.085885 z m 7.810471,-6.054298 v -4.608486 h -2.724585 -2.724584 v 4.608486 4.6085 h 2.724584 2.724585 z m 6.276024,1.897617 v -5.060302 h 6.075412 6.075446 l 0.05475,0.948801 0.0551,0.948809 0.953635,0.05462 0.953601,0.05463 v 4.05687 4.056879 h -2.179651 -2.179698 v -3.885608 -3.885596 h -2.724584 -2.724584 v 3.885596 3.885594 h -2.179694 -2.17966 z m 17.618999,4.156681 V 20.04623 h -0.908207 -0.908207 v -3.162692 -3.162689 h 0.908207 0.908207 v -0.993992 -0.993985 h 5.176741 5.176707 v 0.993985 0.993992 h 0.908208 0.908208 v 2.168699 2.168704 h -4.904282 -4.904282 v 0.722903 0.722902 h 3.996075 3.996073 v 1.174711 1.174714 h -5.176707 -5.176741 z m 7.901326,-6.054298 v -0.722902 h -2.724585 -2.72462 l -0.05898,0.512262 c -0.118688,1.030638 -0.0975,1.038077 2.825156,0.983574 l 2.683002,-0.05003 z m 7.337189,-0.04517 0.04767,-7.0030972 6.039521,-0.047618 6.039452,-0.047618 v 0.9964208 0.9964238 h 0.999027 0.999028 v 2.1686966 2.168699 h -1.009437 -1.00945 l 0.05617,0.768083 0.05617,0.768083 0.953599,0.05463 0.953599,0.05463 v 2.159257 2.15926 h -0.998984 -0.999028 v 0.903624 0.903633 h -6.087065 -6.087068 z m 9.765251,2.936779 v -1.716872 h -2.724584 -2.724584 v 1.716887 1.716894 h 2.724584 2.724584 z m 0,-5.783204 v -1.716877 h -2.724584 -2.724584 v 1.716884 1.716895 h 2.724584 2.724584 z m 26.500451,5.963934 V 14.082304 H 92.903438 90.99624 v -1.174702 -1.174713 h 1.901051 1.901084 l 0.05153,-1.9427955 0.05153,-1.9427957 2.134272,-0.050904 2.134258,-0.050938 v 1.99371 1.9937132 h 1.998025 1.99806 v 1.174713 1.174713 h -1.99806 -1.998025 v 3.885594 3.885593 h -2.17968 -2.179663 z m 11.806578,2.991414 v -0.894184 l -0.95364,-0.05465 -0.9536,-0.05466 -0.05,-3.117515 -0.05,-3.11751 h 1.0033 1.00334 v -0.99398 -0.993986 h 5.08588 5.08593 v 0.993986 0.993986 h 0.99898 0.99907 v 2.168704 2.168701 h -4.9043 -4.90427 v 0.722906 0.722895 h 3.90527 3.90525 v 1.174714 1.174713 h -5.08593 -5.08588 z m 7.81047,-6.063745 v -0.813266 h -2.72457 -2.72459 v 0.81326 0.813265 h 2.72459 2.72457 z m 10.87949,1.180829 v -5.777101 l -1.95259,-0.05129 -1.95261,-0.05133 V 9.0219718 7.847259 l 6.03946,-0.047618 6.03951,-0.047654 v 1.2675155 1.2675155 h -1.90719 -1.90724 v 5.783199 5.783214 h -2.17966 -2.17968 z m 11.80657,4.873466 v -0.903631 h -0.999 -0.99903 v -3.162693 -3.162685 h 0.99903 0.999 v -0.993986 -0.993986 h 5.08593 5.08588 v 0.993986 0.99399 h 1.00329 1.00332 l -0.05,3.117506 -0.0495,3.117508 -0.9536,0.05465 -0.95364,0.05466 v 0.894182 0.894182 h -5.08588 -5.08594 z m 7.81051,-4.156678 v -2.710883 h -2.72458 -2.72464 v 2.71088 2.710876 h 2.72464 2.72458 z"
       id="path1-5"
       sodipodi:nodetypes="ccccccccccccccccccccccccccccccccccccccccccccccccccccccccccccccccccccccccccccccccccccccccccccccccccccccccccccccccccccccccccccccccccccccccccccccccccccccccccssccccccccccccccccccccccccccccccccccccccccccccccccccccccccccccccccccccccccccccccccccccccccccccccccccccccccccccccccccccccccccccccccccccccccccccccccccccccccccccccc" />
    <path
       style="fill:url(#linearGradient16);fill-opacity:1;stroke-width:0.684782"
       d="m 75.41193,21.497683 v -1.174711 h 3.905253 3.905254 v -0.71931 -0.719305 l -3.859862,-0.04878 -3.859825,-0.04878 -0.0551,-0.948809 -0.05475,-0.948805 h -0.989566 -0.98949 v -3.162714 -3.16269 h 2.179659 2.179697 v 2.891598 2.891606 h 2.724585 2.724585 v -2.891611 -2.891599 h 2.179696 2.179626 v 5.05086 5.050858 l -0.9536,0.05466 -0.953565,0.05465 -0.0551,0.948808 -0.05475,0.94881 h -5.07642 -5.07642 z m 76.15053,0 v -1.174711 h 3.90522 3.90526 v -0.71931 -0.719305 l -3.85984,-0.04878 -3.85986,-0.04878 -0.0549,-0.948809 -0.0552,-0.948805 h -0.98946 -0.98956 v -3.162714 -3.16269 h 2.1797 2.17965 v 2.891598 2.891606 h 2.72459 2.72458 v -2.891611 -2.891599 h 2.17971 2.17965 v 5.05086 5.050858 l -0.9536,0.05466 -0.95359,0.05465 -0.0549,0.948808 -0.0552,0.94881 h -5.07641 -5.07642 z M 10.428625,19.780796 V 18.877172 H 9.4295996 8.4305714 V 13.726494 8.5758332 H 9.4295996 10.428625 V 7.5818431 6.5878567 h 5.085888 5.085922 v 0.9939864 0.9939901 h 1.001817 1.00182 l -0.04838,5.1054798 -0.0484,5.105493 -0.9536,0.05465 -0.953598,0.05466 v 0.894184 0.894183 h -5.085938 -5.085888 z m 7.810473,-6.054302 V 9.1180126 h -2.724585 -2.724585 v 4.6084814 4.608497 h 2.724585 2.724585 z m 6.276022,1.897621 v -5.060306 h 6.075448 6.075377 l 0.05475,0.948806 0.0551,0.948809 0.953599,0.05462 0.953635,0.05461 v 4.05687 4.056874 H 36.503346 34.323684 V 16.798805 12.913208 H 31.5991 28.874515 v 3.885597 3.885591 H 26.694821 24.51516 Z m 17.619034,4.156681 v -0.903624 h -0.908207 -0.908206 v -3.162697 -3.162694 h 0.908206 0.908207 v -0.993986 -0.993986 h 5.176674 5.176741 v 0.993986 0.993986 h 0.908207 0.908172 v 2.168705 2.168699 h -4.904246 -4.904245 v 0.72291 0.722896 h 3.99604 3.996072 v 1.174714 1.174715 h -5.176741 -5.176674 z m 7.901258,-6.054302 v -0.722898 h -2.724584 -2.724552 l -0.05898,0.512263 c -0.118688,1.030629 -0.09715,1.038072 2.82512,0.983572 l 2.683007,-0.05002 z m 7.337221,-0.04517 0.0477,-7.0030915 6.039521,-0.047618 6.039521,-0.04762 v 0.996424 0.9964237 h 0.999027 0.998992 v 2.1686978 2.1687 h -1.009448 -1.009447 l 0.05617,0.768082 0.05581,0.768081 0.953601,0.05463 0.953597,0.05462 v 2.159258 2.159259 h -0.999002 -0.999027 v 0.903624 0.903632 h -6.087104 -6.087069 z m 9.765254,2.936783 V 14.90123 h -2.724585 -2.724585 v 1.716885 1.716892 h 2.724585 2.724585 z m 0,-5.783203 V 9.1180161 H 64.413302 61.688717 V 10.8349 12.551793 h 2.724585 2.724585 z m 26.500455,5.963929 V 12.913258 H 91.731144 89.823909 V 11.738544 10.56383 h 1.901053 1.901087 l 0.05157,-1.9427947 0.05157,-1.9427959 2.134274,-0.050904 2.134282,-0.050938 v 1.9937097 1.9937089 h 1.998008 1.998037 v 1.174713 1.174717 h -1.998037 -1.998008 v 3.885592 3.885595 h -2.179701 -2.17967 z m 11.806568,2.991406 V 18.89606 l -0.95361,-0.05465 -0.95358,-0.05466 -0.0499,-3.117513 -0.05,-3.11751 h 1.00329 1.00332 v -0.993965 -0.993986 h 5.08591 5.08592 v 0.993986 0.993987 h 0.999 0.99902 v 2.168703 2.168698 h -4.90427 -4.90429 v 0.722908 0.722897 h 3.90529 3.90525 v 1.174711 1.174715 h -5.08592 -5.08591 z m 7.81047,-6.063743 v -0.813258 h -2.72459 -2.72454 v 0.813258 0.813267 h 2.72454 2.72459 z m 10.87954,1.180832 V 9.130235 L 122.18227,9.078943 120.22964,9.027651 V 7.8529592 6.6782462 l 6.03952,-0.047618 6.03952,-0.047618 v 1.2675157 1.2675082 h -1.90722 -1.9072 v 5.7832029 5.78321 h -2.17971 -2.17963 z m 11.80652,4.873469 v -0.903628 h -0.99902 -0.999 V 15.71448 12.551787 h 0.999 0.99902 v -0.994005 -0.993987 h 5.08588 5.08594 v 0.993987 0.993989 h 1.00329 1.00327 l -0.0495,3.11751 -0.05,3.11751 -0.9536,0.05465 -0.95358,0.05466 v 0.894181 0.894183 h -5.08591 -5.08591 z m 7.81048,-4.156681 v -2.710878 h -2.7246 -2.72458 v 2.710878 2.710876 h 2.72458 2.7246 z"
       id="path2-2"
       sodipodi:nodetypes="ccccccccccccccccccccccccccccccccccccccccccccccccccccccccccccccccccccccccccccccccccccccccccccccccccccccccccccccccccccccccccccccccccccccccccccccccccccccccccssccccccccccccccccccccccccccccccccccccccccccccccccccccccccccccccccccccccccccccccccccccccccccccccccccccccccccccccccccccccccccccccccccccccccccccccccccccccccccccccc" />
  </g>
</svg>
